<svg width="17" height="16" viewBox="0 0 17 16" fill="none" xmlns="http://www.w3.org/2000/svg">
<path d="M14.2272 4.00001C14.2272 2.55468 11.7852 1.33334 8.89388 1.33334C6.00255 1.33334 3.56055 2.55468 3.56055 4.00001V5.33334C3.56055 6.77868 6.00255 8.00001 8.89388 8.00001C11.7852 8.00001 14.2272 6.77868 14.2272 5.33334V4.00001ZM8.89388 12.6667C6.00255 12.6667 3.56055 11.4453 3.56055 10V12C3.56055 13.4453 6.00255 14.6667 8.89388 14.6667C11.7852 14.6667 14.2272 13.4453 14.2272 12V10C14.2272 11.4453 11.7852 12.6667 8.89388 12.6667Z" fill="white"/>
<path d="M14.2272 6.66666C14.2272 8.11199 11.7852 9.33332 8.89388 9.33332C6.00255 9.33332 3.56055 8.11199 3.56055 6.66666V8.66666C3.56055 10.112 6.00255 11.3333 8.89388 11.3333C11.7852 11.3333 14.2272 10.112 14.2272 8.66666V6.66666Z" fill="white"/>
</svg>
