<svg width="17" height="17" viewBox="0 0 17 17" fill="none" xmlns="http://www.w3.org/2000/svg">
<path d="M13.0508 3.3689H2.05078V4.9539L5.75578 8.6639L6.05078 8.9539V13.3689H8.05078V12.3689H9.05078V13.3689C9.05078 13.6341 8.94542 13.8885 8.75789 14.076C8.57035 14.2635 8.316 14.3689 8.05078 14.3689H6.05078C5.78557 14.3689 5.53121 14.2635 5.34368 14.076C5.15614 13.8885 5.05078 13.6341 5.05078 13.3689V9.3689L1.34578 5.6639C1.2522 5.57087 1.17795 5.46024 1.12732 5.33838C1.07669 5.21652 1.05068 5.08585 1.05078 4.9539V3.3689C1.05078 3.10368 1.15614 2.84933 1.34367 2.66179C1.53121 2.47425 1.78557 2.3689 2.05078 2.3689H13.0508V3.3689Z" fill="#7B809A"/>
<path d="M14.9058 6.01387L13.4058 4.51387C13.3593 4.467 13.304 4.4298 13.2431 4.40442C13.1821 4.37904 13.1168 4.36597 13.0508 4.36597C12.9848 4.36597 12.9194 4.37904 12.8585 4.40442C12.7976 4.4298 12.7423 4.467 12.6958 4.51387L8.05078 9.16387V11.3689H10.2558L14.9058 6.72387C14.9526 6.67738 14.9898 6.62208 15.0152 6.56115C15.0406 6.50022 15.0537 6.43487 15.0537 6.36887C15.0537 6.30286 15.0406 6.23751 15.0152 6.17658C14.9898 6.11565 14.9526 6.06035 14.9058 6.01387ZM9.84578 10.3689H9.05078V9.57387L11.5508 7.07387L12.3458 7.86887L9.84578 10.3689ZM13.0508 7.16387L12.2558 6.36887L13.0508 5.57387L13.8458 6.36887L13.0508 7.16387Z" fill="#7B809A"/>
</svg>
