<svg width="24" height="24" viewBox="0 0 24 24" fill="none" xmlns="http://www.w3.org/2000/svg">
<path d="M11.6385 2.34284C11.8635 2.21905 12.1363 2.21905 12.3613 2.34284L14.3613 3.44284C14.7243 3.64246 14.8567 4.0985 14.6571 4.46144C14.4574 4.82438 14.0014 4.95678 13.6385 4.75716L11.9999 3.85595L10.3613 4.75716C9.99839 4.95678 9.54235 4.82438 9.34273 4.46144C9.14312 4.0985 9.27552 3.64246 9.63846 3.44284L11.6385 2.34284Z" fill="white"/>
<path d="M6.36156 7.0572C6.7245 6.85759 6.8569 6.40154 6.65728 6.0386C6.45767 5.67566 6.00162 5.54326 5.63868 5.74288L3.65587 6.83343C3.52783 6.89937 3.41736 7.00283 3.34273 7.13852C3.27565 7.26049 3.24606 7.39297 3.25012 7.5227V10C3.25012 10.4143 3.58591 10.75 4.00012 10.75C4.41434 10.75 4.75012 10.4143 4.75012 10V8.76854L5.63846 9.25712C6.0014 9.45674 6.45744 9.32434 6.65706 8.9614C6.85667 8.59846 6.72428 8.14241 6.36133 7.9428L5.55637 7.50006L6.36156 7.0572Z" fill="white"/>
<path d="M4.75012 14.0001C4.75012 13.5858 4.41434 13.2501 4.00012 13.2501C3.58591 13.2501 3.25012 13.5858 3.25012 14.0001V16.5001C3.25012 16.7736 3.39902 17.0254 3.63868 17.1572L5.63868 18.2572C6.00162 18.4568 6.45767 18.3244 6.65728 17.9615C6.8569 17.5986 6.7245 17.1425 6.36156 16.9429L4.75012 16.0566V14.0001Z" fill="white"/>
<path d="M18.3616 5.74288C17.9986 5.54326 17.5426 5.67566 17.343 6.0386C17.1434 6.40154 17.2758 6.85759 17.6387 7.0572L18.4438 7.5L17.6387 7.9428C17.2758 8.14241 17.1434 8.59846 17.343 8.9614C17.5426 9.32434 17.9986 9.45674 18.3616 9.25712L19.2501 8.76841V10C19.2501 10.4143 19.5859 10.75 20.0001 10.75C20.4144 10.75 20.7501 10.4143 20.7501 10V7.51372C20.7526 7.38686 20.7228 7.25767 20.6573 7.13852C20.5835 7.00424 20.4745 6.90152 20.3482 6.8355L18.3616 5.74288Z" fill="white"/>
<path d="M20.0001 13.2501C20.4143 13.2501 20.7501 13.5858 20.7501 14.0001V16.5001C20.7501 16.7715 20.6034 17.0218 20.3666 17.1544L18.3666 18.2744C18.0052 18.4768 17.5481 18.3479 17.3458 17.9865C17.1434 17.6251 17.2723 17.1681 17.6337 16.9657L19.2501 16.0605V14.0001C19.2501 13.5858 19.5859 13.2501 20.0001 13.2501Z" fill="white"/>
<path d="M10.3613 19.2429C9.99839 19.0433 9.54235 19.1757 9.34273 19.5386C9.14312 19.9015 9.27552 20.3576 9.63846 20.5572L11.6282 21.6515C11.7378 21.7142 11.8647 21.7501 12 21.7501C12.1371 21.7501 12.2656 21.7133 12.3762 21.649L14.3613 20.5572C14.7243 20.3576 14.8567 19.9015 14.6571 19.5386C14.4574 19.1757 14.0014 19.0433 13.6385 19.2429L12.75 19.7315V18.5001C12.75 18.0858 12.4142 17.7501 12 17.7501C11.5858 17.7501 11.25 18.0858 11.25 18.5001V19.7316L10.3613 19.2429Z" fill="white"/>
<path d="M14.6573 10.5386C14.8569 10.9015 14.7245 11.3576 14.3616 11.5572L12.75 12.4436V14.5C12.75 14.9142 12.4142 15.25 12 15.25C11.5858 15.25 11.25 14.9142 11.25 14.5V12.4397L9.63344 11.5345C9.27203 11.3321 9.14312 10.875 9.34551 10.5136C9.5479 10.1522 10.0049 10.0233 10.3663 10.2257L12.0033 11.1424L13.6387 10.2429C14.0016 10.0433 14.4577 10.1757 14.6573 10.5386Z" fill="white"/>
</svg>
