<svg width="24" height="24" viewBox="0 0 24 24" fill="none" xmlns="http://www.w3.org/2000/svg">
<g clip-path="url(#clip0_456_4329)">
<path d="M11.9837 5.4144C11.6885 5.41675 11.4066 5.48219 11.1979 5.5968L0.33192 11.5598C0.226557 11.6176 0.142975 11.6863 0.0859492 11.7618C0.0289239 11.8373 -0.000427246 11.9182 -0.000427246 12C-0.000427246 12.0818 0.0289239 12.1627 0.0859492 12.2382C0.142975 12.3138 0.226557 12.3824 0.33192 12.4402L11.1979 18.4032C11.3032 18.461 11.4283 18.5069 11.5659 18.5382C11.7035 18.5695 11.851 18.5856 12 18.5856C12.149 18.5856 12.2965 18.5695 12.4341 18.5382C12.5717 18.5069 12.6968 18.461 12.8021 18.4032L23.6681 12.4402C23.7734 12.3824 23.857 12.3138 23.914 12.2382C23.9711 12.1627 24.0004 12.0818 24.0004 12C24.0004 11.9182 23.9711 11.8373 23.914 11.7618C23.857 11.6863 23.7734 11.6176 23.6681 11.5598L12.8021 5.5968C12.6948 5.5379 12.5671 5.4914 12.4266 5.46007C12.286 5.42874 12.1354 5.41321 11.9837 5.4144ZM12 6.9168L14.0911 8.06448C13.7926 8.17852 13.5033 8.31532 13.2257 8.47368C12.5472 8.86008 11.9158 9.37944 11.5471 10.0663C10.0838 9.83592 8.58888 9.6972 7.1148 9.5976L12 6.9168ZM15.6713 8.9316L21.263 12L19.4297 13.0058C17.5546 11.5994 15.2705 10.7882 12.8438 10.2962C13.0882 10.0142 13.4321 9.73704 13.8192 9.51648C14.4024 9.18456 15.0761 8.982 15.4903 8.96352C15.5519 8.96223 15.613 8.95147 15.6713 8.9316ZM5.16096 10.6702C5.20069 10.6805 5.24139 10.6868 5.2824 10.6889C9.94464 10.9457 14.8946 11.4036 18.2602 13.6476L17.46 14.0868C15.6379 12.911 13.5475 12.0578 10.949 12.1927C9.3996 12.2731 7.66824 12.7075 5.70744 13.6298L2.73744 12L5.16096 10.6702ZM11.7029 13.3294C13.4477 13.3625 14.8896 13.9375 16.2533 14.7492L12 17.0832L7.02648 14.3537C8.83272 13.5991 10.3577 13.3039 11.7029 13.3294Z" fill="white"/>
</g>
<defs>
<clipPath id="clip0_456_4329">
<rect width="24" height="24" fill="white"/>
</clipPath>
</defs>
</svg>
