<svg width="16" height="16" viewBox="0 0 16 16" fill="none" xmlns="http://www.w3.org/2000/svg">
<g clip-path="url(#clip0_43_1145)">
<path fill-rule="evenodd" clip-rule="evenodd" d="M15.5555 5.83822V10.1618C15.5555 12.2009 15.5555 13.2196 14.9138 13.8533C14.3315 14.4284 13.4258 14.4809 11.7173 14.4862C11.8071 13.8862 11.8258 13.1707 11.8311 12.328C11.8311 12.2422 11.8142 12.1573 11.7813 12.0781C11.7485 11.9989 11.7004 11.9269 11.6397 11.8663C11.579 11.8057 11.507 11.7577 11.4277 11.725C11.3485 11.6922 11.2635 11.6754 11.1778 11.6756C11.092 11.6745 11.0068 11.6904 10.9271 11.7222C10.8475 11.7541 10.7748 11.8013 10.7134 11.8612C10.652 11.9212 10.603 11.9926 10.5692 12.0715C10.5354 12.1503 10.5175 12.2351 10.5164 12.3209C10.5111 13.2667 10.4871 13.9369 10.392 14.4453C10.3004 14.936 10.1547 15.2187 9.94132 15.4302C9.69865 15.6702 9.35821 15.8258 8.71465 15.9102C8.05332 15.9991 7.17688 16 5.9191 16H5.04354C3.78576 16 2.90932 15.9982 2.2471 15.9111C1.60443 15.8258 1.26399 15.6693 1.02221 15.4302C0.779542 15.1902 0.621319 14.8542 0.535097 14.2196C0.446208 13.5671 0.44443 12.7004 0.44443 11.4596V4.54044C0.44443 3.29867 0.446208 2.43378 0.535097 1.78044C0.621319 1.14578 0.779542 0.808889 1.02132 0.569778C1.26399 0.329778 1.60443 0.174222 2.24799 0.0897778C2.90843 5.96046e-08 3.78488 0 5.04265 0H5.91821C7.17599 0 8.05243 0.0017777 8.71465 0.0888888C9.35732 0.174222 9.69776 0.330667 9.94043 0.569778C10.1538 0.780445 10.2995 1.064 10.3911 1.55467C10.4862 2.06311 10.5102 2.73333 10.5155 3.67911C10.5166 3.76491 10.5345 3.84966 10.5683 3.92853C10.6021 4.0074 10.6511 4.07883 10.7125 4.13876C10.774 4.19868 10.8466 4.24593 10.9262 4.27779C11.0059 4.30965 11.0911 4.3255 11.1769 4.32444C11.2626 4.32456 11.3476 4.30777 11.4268 4.27504C11.5061 4.2423 11.5781 4.19426 11.6388 4.13366C11.6995 4.07307 11.7476 4.0011 11.7805 3.92189C11.8133 3.84267 11.8302 3.75776 11.8302 3.672C11.8249 2.82933 11.8062 2.11378 11.7164 1.51378C13.4249 1.51911 14.3298 1.57156 14.9129 2.14667C15.5547 2.78044 15.5555 3.8 15.5555 5.83822ZM13.3911 8.45867C13.4521 8.39884 13.5005 8.32747 13.5335 8.24871C13.5666 8.16996 13.5836 8.08541 13.5836 8C13.5836 7.91459 13.5666 7.83004 13.5335 7.75129C13.5005 7.67253 13.4521 7.60116 13.3911 7.54133L11.64 5.81156C11.516 5.68963 11.349 5.6213 11.1751 5.6213C11.0012 5.6213 10.8342 5.68963 10.7102 5.81156C10.6493 5.87138 10.6008 5.94276 10.5678 6.02151C10.5347 6.10026 10.5177 6.18481 10.5177 6.27022C10.5177 6.35563 10.5347 6.44018 10.5678 6.51894C10.6008 6.59769 10.6493 6.66906 10.7102 6.72889L11.3413 7.35111H5.04265C4.67999 7.35111 4.38488 7.64178 4.38488 8C4.38488 8.35822 4.67999 8.64889 5.04265 8.64889H11.3422L10.7111 9.27111C10.6501 9.33094 10.6017 9.40231 10.5687 9.48106C10.5356 9.55982 10.5186 9.64437 10.5186 9.72978C10.5186 9.81519 10.5356 9.89974 10.5687 9.97849C10.6017 10.0572 10.6501 10.1286 10.7111 10.1884C10.8351 10.3104 11.0021 10.3787 11.176 10.3787C11.3499 10.3787 11.5169 10.3104 11.6409 10.1884L13.3911 8.45867Z" fill="#7B809A"/>
</g>
<defs>
<clipPath id="clip0_43_1145">
<rect width="16" height="16" fill="white" transform="matrix(-1 0 0 1 16 0)"/>
</clipPath>
</defs>
</svg>
