<svg width="17" height="16" viewBox="0 0 17 16" fill="none" xmlns="http://www.w3.org/2000/svg">
<path d="M6.56071 1.228L10.61 3.59066L15.2274 1.66666V7.33333H13.894V3.66666L11.2274 4.778V7.33333H9.89404V4.716L7.22738 3.16066V11.284L8.47271 12.0107L7.80071 13.162L6.51138 12.4093L1.89404 14.3333V3.95066L6.56071 1.228ZM5.89404 11.222V3.16066L3.22738 4.716V12.3333L5.89404 11.222Z" fill="white"/>
<path d="M13.2271 8.5V9.41733C13.7038 9.54 14.1285 9.79067 14.4631 10.132L15.2585 9.67267L15.9251 10.8273L15.1305 11.286C15.2603 11.7531 15.2603 12.2469 15.1305 12.714L15.9251 13.1727L15.2585 14.3273L14.4631 13.868C14.1238 14.2141 13.6964 14.4612 13.2271 14.5827V15.5H11.8938V14.5827C11.4245 14.4612 10.9972 14.2141 10.6578 13.868L9.86247 14.3273L9.1958 13.1727L9.99047 12.714C9.86065 12.2469 9.86065 11.7531 9.99047 11.286L9.1958 10.8273L9.86247 9.67267L10.6578 10.1313C10.9973 9.78568 11.4246 9.53907 11.8938 9.418V8.5H13.2271ZM11.3931 11.3553C11.284 11.5527 11.2266 11.7745 11.2265 12C11.2265 12.2333 11.2871 12.4533 11.3931 12.6447L11.4171 12.6867C11.5356 12.8841 11.7032 13.0475 11.9035 13.1609C12.1039 13.2744 12.3302 13.334 12.5605 13.334C12.7907 13.334 13.017 13.2744 13.2174 13.1609C13.4178 13.0475 13.5853 12.8841 13.7038 12.6867L13.7278 12.6447C13.8368 12.4473 13.8939 12.2255 13.8938 12C13.8938 11.7667 13.8338 11.5467 13.7278 11.3553L13.7038 11.3133C13.5853 11.1159 13.4178 10.9525 13.2174 10.8391C13.017 10.7256 12.7907 10.666 12.5605 10.666C12.3302 10.666 12.1039 10.7256 11.9035 10.8391C11.7032 10.9525 11.5356 11.1159 11.4171 11.3133L11.3931 11.3553Z" fill="white"/>
</svg>
