<svg width="17" height="17" viewBox="0 0 17 17" fill="none" xmlns="http://www.w3.org/2000/svg">
<g clip-path="url(#clip0_703_86)">
<path d="M13.9298 2.0544C14.4522 2.464 14.8122 3.1256 14.9594 3.8184L15.0114 3.8392L16.6474 4.596C16.7388 4.63807 16.8162 4.70537 16.8707 4.78999C16.9251 4.8746 16.9542 4.973 16.9546 5.0736V14.9672C16.954 15.0494 16.9344 15.1303 16.8973 15.2036C16.8602 15.277 16.8066 15.3407 16.7407 15.3898C16.6748 15.439 16.5984 15.4722 16.5176 15.4869C16.4367 15.5015 16.3535 15.4973 16.2746 15.4744L11.7394 14.1944L6.34739 15.6808C6.25013 15.7077 6.14725 15.7066 6.05059 15.6776L1.33379 14.2736C1.22477 14.2416 1.12898 14.1752 1.06067 14.0844C0.992351 13.9936 0.95515 13.8832 0.95459 13.7696L0.95459 3.6984C0.95459 3.3464 1.29699 3.0936 1.63859 3.1928L6.20019 4.5216L8.51859 3.812C8.55059 3.8024 8.58312 3.79573 8.61619 3.792C8.70579 3.2672 8.95619 2.7632 9.37619 2.272C9.87459 1.688 10.749 1.3456 11.601 1.3048C12.485 1.2624 13.1602 1.4512 13.929 2.0536M2.02099 4.4048V13.3768L5.91699 14.536V5.5384L2.02099 4.4048ZM8.58819 4.896L6.98339 5.3864V14.4096L11.0354 13.2944V10.6584C11.0354 10.3672 11.2746 10.1312 11.569 10.1312C11.8634 10.1312 12.1018 10.3672 12.1018 10.6592V13.2008L15.8882 14.2688V5.4088L14.9922 4.9928C14.9773 5.0808 14.9578 5.16693 14.9338 5.2512C14.7605 5.86486 14.4686 6.43861 14.0746 6.94L12.093 9.4144C12.0408 9.47946 11.9742 9.53145 11.8984 9.56623C11.8226 9.60101 11.7397 9.61762 11.6564 9.61475C11.573 9.61187 11.4915 9.58959 11.4183 9.54967C11.3451 9.50975 11.2822 9.4533 11.2346 9.3848L9.38259 6.7024C9.07646 6.27627 8.86286 5.89333 8.74179 5.5536C8.66567 5.34098 8.61414 5.12034 8.58819 4.896ZM11.6522 2.3592C11.0714 2.3872 10.4746 2.6208 10.1906 2.9528C9.84899 3.3528 9.68099 3.7272 9.64739 4.1064C9.60739 4.5632 9.63459 4.8856 9.74819 5.2048C9.83219 5.4408 9.99939 5.74 10.2578 6.1008L11.7066 8.1984L13.2346 6.2904C13.5431 5.89658 13.7716 5.44627 13.9074 4.9648C14.0994 4.2928 13.8098 3.3056 13.2674 2.8816C12.7114 2.4456 12.2914 2.328 11.653 2.3592M11.7634 2.9168C12.6466 2.9168 13.3634 3.6248 13.3634 4.4984C13.3606 4.92021 13.1906 5.32369 12.8906 5.62023C12.5906 5.91677 12.1852 6.08213 11.7634 6.08C10.8802 6.08 10.1634 5.372 10.1634 4.4984C10.1634 3.6248 10.8802 2.9168 11.7634 2.9168ZM11.7634 3.9712C11.6937 3.97078 11.6247 3.98408 11.5602 4.01035C11.4957 4.03661 11.4369 4.07533 11.3874 4.12429C11.3379 4.17324 11.2984 4.23148 11.2714 4.29567C11.2443 4.35986 11.2302 4.42875 11.2298 4.4984C11.2298 4.7896 11.469 5.0256 11.7634 5.0256C11.833 5.02592 11.9021 5.01251 11.9665 4.98615C12.031 4.95978 12.0897 4.92098 12.1391 4.87195C12.1886 4.82292 12.228 4.76463 12.2549 4.70039C12.2818 4.63616 12.2959 4.56725 12.2962 4.4976C12.2951 4.35721 12.2385 4.22296 12.1386 4.12429C12.0387 4.02561 11.9038 3.97056 11.7634 3.9712Z" fill="white"/>
</g>
<defs>
<clipPath id="clip0_703_86">
<rect width="16" height="16" fill="white" transform="translate(0.95459 0.5)"/>
</clipPath>
</defs>
</svg>
