<svg width="16" height="16" viewBox="0 0 16 16" fill="none" xmlns="http://www.w3.org/2000/svg">
<path fill-rule="evenodd" clip-rule="evenodd" d="M6.67271 1.91047C4.41402 2.49139 2.7454 4.5408 2.7454 6.98163V10.4722C2.7454 10.794 2.48409 11.0546 2.16424 11.0546C1.52115 11.0546 1 11.5769 1 12.2183C1 12.8609 1.5219 13.3818 2.16639 13.3818H13.7971C14.4413 13.3818 14.9635 12.8597 14.9635 12.2183C14.9635 11.5755 14.4399 11.0546 13.7992 11.0546C13.4782 11.0546 13.2181 10.7959 13.2181 10.4722V6.98163C13.2181 4.54178 11.5497 2.49164 9.29077 1.91047V1.30939C9.29077 0.584484 8.70456 0 7.98162 0C7.26009 0 6.67266 0.586204 6.67266 1.30939L6.67271 1.91047ZM5.94541 13.9638H10.0181C10.0181 15.0885 9.10629 16 7.98167 16C6.85705 16 5.94547 15.0884 5.94547 13.9638H5.94541Z" fill="#7B809A"/>
</svg>
