<svg width="17" height="16" viewBox="0 0 17 16" fill="none" xmlns="http://www.w3.org/2000/svg">
<path d="M5.89404 9H9.89404V10H5.89404V9ZM5.89404 6.5H11.894V7.5H5.89404V6.5ZM5.89404 11.5H8.39404V12.5H5.89404V11.5Z" fill="white"/>
<path d="M13.394 2.5H11.894V2C11.894 1.73478 11.7887 1.48043 11.6011 1.29289C11.4136 1.10536 11.1593 1 10.894 1H6.89404C6.62883 1 6.37447 1.10536 6.18694 1.29289C5.9994 1.48043 5.89404 1.73478 5.89404 2V2.5H4.39404C4.12883 2.5 3.87447 2.60536 3.68694 2.79289C3.4994 2.98043 3.39404 3.23478 3.39404 3.5V14C3.39404 14.2652 3.4994 14.5196 3.68694 14.7071C3.87447 14.8946 4.12883 15 4.39404 15H13.394C13.6593 15 13.9136 14.8946 14.1011 14.7071C14.2887 14.5196 14.394 14.2652 14.394 14V3.5C14.394 3.23478 14.2887 2.98043 14.1011 2.79289C13.9136 2.60536 13.6593 2.5 13.394 2.5ZM6.89404 2H10.894V4H6.89404V2ZM13.394 14H4.39404V3.5H5.89404V5H11.894V3.5H13.394V14Z" fill="white"/>
</svg>
