<svg width="17" height="16" viewBox="0 0 17 16" fill="none" xmlns="http://www.w3.org/2000/svg">
<path d="M8.56038 2.66666C8.11838 2.66666 7.74572 3.03199 7.74572 3.49999C7.74572 3.96799 8.11838 4.33333 8.56038 4.33333C9.00238 4.33333 9.37505 3.96799 9.37505 3.49999C9.37505 3.03199 9.00238 2.66666 8.56038 2.66666ZM6.41238 3.49999C6.41238 2.31133 7.36572 1.33333 8.56038 1.33333C9.75438 1.33333 10.7084 2.31133 10.7084 3.49999C10.7093 3.95549 10.5667 4.3997 10.3008 4.76951C10.0349 5.13932 9.65916 5.41592 9.22705 5.55999V6.11733L11.7931 7.61733V10.5887L12.3384 10.8627C12.7275 10.5214 13.2275 10.3333 13.7451 10.3333C14.9404 10.3333 15.8937 11.3113 15.8937 12.5C15.8937 13.6887 14.9397 14.6667 13.7457 14.6667C12.5517 14.6667 11.5977 13.6887 11.5977 12.5C11.5977 12.3315 11.6159 12.1682 11.6524 12.01L11.1504 11.758L8.56038 13.272L5.97038 11.7587L5.46838 12.0107C5.50483 12.1684 5.52305 12.3315 5.52305 12.5C5.52305 13.6887 4.56972 14.6667 3.37505 14.6667C2.18105 14.6667 1.22705 13.6887 1.22705 12.5C1.22705 11.3113 2.18105 10.3333 3.37505 10.3333C3.91505 10.3333 4.40705 10.5333 4.78305 10.8633L5.32772 10.5893V7.61733L7.89372 6.11733V5.56066C7.4615 5.41655 7.08571 5.13985 6.81977 4.76991C6.55383 4.39997 6.41128 3.9556 6.41238 3.49999ZM8.56038 7.27199L6.66105 8.38266V10.6173L8.56038 11.728L10.4597 10.6173V8.38266L8.56038 7.27199ZM4.04372 12.0227C3.96951 11.9135 3.86986 11.8241 3.75336 11.7621C3.63687 11.7 3.50703 11.6673 3.37505 11.6667C2.93372 11.6667 2.56038 12.032 2.56038 12.5C2.56038 12.968 2.93305 13.3333 3.37505 13.3333C3.81772 13.3333 4.18972 12.968 4.18972 12.5C4.18927 12.4022 4.17416 12.3098 4.14438 12.2227L4.04372 12.0227ZM12.9764 12.2247C12.9465 12.3134 12.9312 12.4064 12.9311 12.5C12.9311 12.968 13.3031 13.3333 13.7457 13.3333C14.1884 13.3333 14.5604 12.968 14.5604 12.5C14.5604 12.032 14.1877 11.6667 13.7457 11.6667C13.4724 11.6667 13.2264 11.806 13.0777 12.022L12.9764 12.2247Z" fill="white"/>
</svg>
